HIERARCHY
ROOT root
{
	OFFSET 0.000000 0.000000 0.000000
	CHANNELS 6 Xposition Yposition Zposition Zrotation Yrotation Xrotation
	JOINT lhip
	{
		OFFSET 0.058581 -0.082280 -0.017664
		CHANNELS 3 Zrotation Yrotation Xrotation
		JOINT lknee
		{
			OFFSET 0.043451 -0.386469 0.008037
			CHANNELS 3 Zrotation Yrotation Xrotation
			JOINT lankle
			{
				OFFSET -0.014790 -0.426874 -0.037428
				CHANNELS 3 Zrotation Yrotation Xrotation
				JOINT ltoe
				{
					OFFSET 0.041054 -0.060286 0.122042
					CHANNELS 3 Zrotation Yrotation Xrotation
					End Site
					{
						OFFSET 0.000000 0.000000 0.000000
					}
				}
			}
		}
	}
	JOINT rhip
	{
		OFFSET -0.060310 -0.090513 -0.013543
		CHANNELS 3 Zrotation Yrotation Xrotation
		JOINT rknee
		{
			OFFSET -0.043257 -0.383688 -0.004843
			CHANNELS 3 Zrotation Yrotation Xrotation
			JOINT rankle
			{
				OFFSET 0.019056 -0.420046 -0.034562
				CHANNELS 3 Zrotation Yrotation Xrotation
				JOINT rtoe
				{
					OFFSET -0.034840 -0.062106 0.130323
					CHANNELS 3 Zrotation Yrotation Xrotation
					End Site
					{
						OFFSET 0.000000 0.000000 0.000000
					}
				}
			}
		}
	}
	JOINT lowerback
	{
		OFFSET 0.004439 0.124404 -0.038385
		CHANNELS 3 Zrotation Yrotation Xrotation
		JOINT upperback
		{
			OFFSET 0.004488 0.137956 0.026820
			CHANNELS 3 Zrotation Yrotation Xrotation
			JOINT chest
			{
				OFFSET -0.002265 0.056032 0.002855
				CHANNELS 3 Zrotation Yrotation Xrotation
				JOINT lowerneck
				{
					OFFSET -0.013390 0.211636 -0.033468
					CHANNELS 3 Zrotation Yrotation Xrotation
					JOINT upperneck
					{
						OFFSET 0.010113 0.088937 0.050410
						CHANNELS 3 Zrotation Yrotation Xrotation
						End Site
						{
							OFFSET 0.000000 0.000000 0.000000
						}
					}
				}
				JOINT lclavicle
				{
					OFFSET 0.071702 0.114000 -0.018898
					CHANNELS 3 Zrotation Yrotation Xrotation
					JOINT lshoulder
					{
						OFFSET 0.122921 0.045205 -0.019046
						CHANNELS 3 Zrotation Yrotation Xrotation
						JOINT lelbow
						{
							OFFSET 0.255332 -0.015649 -0.022946
							CHANNELS 3 Zrotation Yrotation Xrotation
							JOINT lwrist
							{
								OFFSET 0.265709 0.012698 -0.007375
								CHANNELS 3 Zrotation Yrotation Xrotation
								End Site
								{
									OFFSET 0.000000 0.000000 0.000000
								}
							}
						}
					}
				}
				JOINT rclavicle
				{
					OFFSET -0.082954 0.112472 -0.023707
					CHANNELS 3 Zrotation Yrotation Xrotation
					JOINT rshoulder
					{
						OFFSET -0.113228 0.046853 -0.008472
						CHANNELS 3 Zrotation Yrotation Xrotation
						JOINT relbow
						{
							OFFSET -0.260127 -0.014369 -0.031269
							CHANNELS 3 Zrotation Yrotation Xrotation
							JOINT rwrist
							{
								OFFSET -0.269108 0.006794 -0.006027
								CHANNELS 3 Zrotation Yrotation Xrotation
								End Site
								{
									OFFSET 0.000000 0.000000 0.000000
								}
							}
						}
					}
				}
			}
		}
	}
}
MOTION
Frames: 6
Frame Time: 0.033333
0.539851 0.774039 0.989076 -86.361582 2.642633 86.534603 2.247284 -0.329653 4.305494 -2.806348 -14.782661 3.143121 5.548180 7.265324 -15.266510 0.000000 -0.000000 0.000000 2.297177 -1.982141 4.589750 3.960177 2.374430 5.167198 2.505134 -2.570574 -11.114475 0.000000 -0.000000 0.000000 0.061229 0.186393 7.419894 1.046997 -3.402855 0.175898 0.463514 -2.031006 2.695670 1.557678 1.343473 10.744203 4.914899 -0.154359 1.875297 -27.652884 4.327106 3.513303 -61.507360 -5.803053 6.418032 10.161173 -22.293060 4.467945 -4.222303 0.988368 -7.724210 23.357234 -2.918966 1.883202 62.406650 0.603884 11.646204 -13.341773 27.660490 2.124569 7.437875 0.146068 -6.839272 
0.537979 0.774438 0.989072 -86.577645 2.512588 86.626531 2.096175 -0.167092 4.332591 -2.577348 -14.406930 3.140911 5.532506 6.748049 -15.448739 0.000000 -0.000000 0.000000 2.115174 -1.922318 4.654727 3.904963 2.149310 5.237640 2.709943 -2.146421 -10.946992 0.000000 -0.000000 0.000000 -0.090445 0.517834 7.161535 0.998633 -3.233207 0.431047 0.421556 -1.899276 2.475323 2.028837 1.391030 10.492604 4.726907 -0.361582 1.714003 -27.287519 4.161477 3.497541 -62.030500 -6.306915 6.916556 10.675707 -25.383778 3.986219 -4.075288 1.045072 -8.658267 23.208676 -3.106352 1.492305 62.100734 2.272376 9.619294 -16.892235 28.997763 -4.826105 6.894971 -0.558207 -10.410993 
0.534876 0.774983 0.988947 -86.653796 2.474558 86.387038 2.134870 0.247099 4.895625 -2.505982 -14.474139 3.002260 5.490156 6.465120 -15.623383 0.000000 -0.000000 0.000000 2.133586 -1.997608 5.189797 3.761835 2.053567 5.181101 2.754293 -1.925265 -11.259881 0.000000 -0.000000 0.000000 -0.300464 0.603697 6.883984 1.028880 -3.199272 0.902101 0.459123 -1.758667 2.370953 2.395363 1.257509 10.704186 4.898614 -0.364820 1.593323 -27.303014 4.170421 3.315007 -61.989254 -6.732528 7.207711 11.062277 -28.640012 3.821854 -3.725648 0.831417 -8.992093 22.957487 -2.867770 1.412384 62.194720 2.458967 9.514909 -17.425913 31.489382 -5.918439 6.838973 -0.422797 -11.391431 
0.533361 0.775203 0.988804 -86.342917 2.525739 86.355650 2.194222 0.030866 4.884855 -2.500240 -14.430632 3.259088 5.485304 6.322868 -15.780495 0.000000 -0.000000 0.000000 2.331680 -1.938564 5.150732 3.609347 1.713944 5.667574 2.664748 -1.891618 -11.591420 0.000000 -0.000000 0.000000 -0.372553 0.516015 6.871992 1.020981 -3.305037 0.925329 0.416681 -1.715152 2.334391 2.613224 1.227782 10.773275 5.097616 -0.312082 1.499597 -27.001973 4.079006 3.323853 -62.246670 -7.261841 7.579948 11.552316 -31.989936 3.596064 -3.315825 0.526162 -9.951477 22.841263 -2.895851 1.088005 62.543383 2.810217 9.513275 -18.031765 33.968157 -6.825171 6.670697 -0.091052 -12.487862 
0.532235 0.775255 0.988678 -86.349045 2.579028 86.447600 2.278914 -0.043613 4.858056 -2.483149 -14.335389 3.223721 5.581730 6.354950 -15.872100 0.000000 -0.000000 0.000000 2.427499 -1.804761 5.154312 3.576426 1.673045 5.621394 2.766850 -1.901825 -11.452210 0.000000 -0.000000 0.000000 -0.425938 0.486935 6.630766 1.037007 -3.314838 0.980947 0.420246 -1.627021 2.364058 2.832486 1.156264 10.678508 5.217634 -0.347794 1.559217 -26.843176 4.118927 3.268897 -62.357884 -7.434337 7.829272 11.708755 -33.739456 3.799638 -3.252128 0.014404 -10.323717 22.782918 -2.903729 0.995742 62.741206 3.168928 9.566047 -18.190597 34.650769 -6.928900 7.470868 0.704043 -12.821001 
0.530848 0.775493 0.988820 -86.174957 2.613639 86.593256 2.357462 -0.167133 4.751277 -2.534090 -14.359497 3.295529 5.503244 6.241265 -15.903283 0.000000 -0.000000 0.000000 2.531414 -1.880672 5.239647 3.514086 1.579350 5.376866 2.765213 -1.894891 -11.441799 0.000000 -0.000000 0.000000 -0.657873 0.425353 6.455611 1.077503 -3.415105 0.846846 0.486522 -1.638398 2.359963 3.083686 1.086718 10.566432 5.387933 -0.414612 1.623859 -26.522130 4.324057 3.134346 -62.645063 -7.645268 8.140718 11.693599 -35.285937 4.105522 -2.709769 -0.204487 -10.530400 22.730528 -2.980729 0.869308 63.135148 3.128017 9.780861 -18.193406 35.617090 -6.847717 6.951748 0.818660 -13.111871 
